# xmcd
#
# Track frame offsets: 
#        150
#        14551
#        30129
#        43082
#        58622
#        68984
#        80879
#        94066
#        108577
#        122792
#        136902
#        146447
#        161664
#        175474
#        190049
#        207402
#        219657
#        232683
#        242987
#        255616
#
# Disc length: 3568 seconds
#
# Revision: 5
# Processed by: cddbd v1.5.2PL0 Copyright (c) Steve Scherf et al.
# Submitted via: ExactAudioCopyFreeDBPlugin 1.0
#
DISCID=210dee14
DTITLE=Various Artist - That's Jazz - The Album - CD 2
DYEAR=2002
DGENRE=Jazz
TTITLE0=Count Basie - Jumpin' At The Woodside
TTITLE1=Glenn Miller - Chattanooga Choo Choo
TTITLE2=Duke Ellington - Take The Train
TTITLE3=Chris Babers Jazz Band - Down By The Riverside
TTITLE4=Dutch Swing College Band - Aux Champs Elysee
TTITLE5=Diana Washington - Ain't Misbehavin
TTITLE6=Glenn Miller - In the Mood
TTITLE7=Erroll Garner - Red Top
TTITLE8=Count Basie - Oh Lady Be Good
TTITLE9=Erroll Garner - Stompin'At The Savoy
TTITLE10=Tony Bennett and Count Basie - Chicago
TTITLE11=Monty Sunshine Band - Margie
TTITLE12=Ella Fitzgerald - Basin Street Blues
TTITLE13=Jimmie Lunceford - Uptown Blues
TTITLE14=Count Basie - April In Paris
TTITLE15=Arti Shaw - A Long Way To Tippeary
TTITLE16=Fred Astaire - Puttin' On The Ritz
TTITLE17=Benny Goodman - Let's Dance
TTITLE18=Gene Kelly - Singin'In The Rain
TTITLE19=Harry James - Trumpet Blues And Cantabile
EXTD=YEAR: 2002
EXTT0=
EXTT1=
EXTT2=
EXTT3=
EXTT4=
EXTT5=
EXTT6=
EXTT7=
EXTT8=
EXTT9=
EXTT10=
EXTT11=
EXTT12=
EXTT13=
EXTT14=
EXTT15=
EXTT16=
EXTT17=
EXTT18=
EXTT19=
PLAYORDER=
